# xmcd
#
# Track frame offsets:
#	150
#	13895
#	31733
#	42861
#	53321
#	67041
#	78752
#	96484
#	112286
#	127077
#	141018
#	154455
#
# Disc length: 2272 seconds
#
# Revision: 0
# Processed by: cddbd v1.5.2PL0 Copyright (c) Steve Scherf et al.
# Submitted via: EasyCDDAExtractor 16.0.6.1
#
DISCID=a308de0c
DTITLE=Συλλογικός δίσκος - Τριάντα χρόνια χελιδόνια 1960-1990 Λ. Παπαδόπουλος 
DTITLE=1
DYEAR=2009
DGENRE=Ποικίλη
TTITLE0=Μπιθικώτσης Γρηγόρης-Κούρτη Ρία - Άπονη ζωή [1964]
TTITLE1=Μπιθικώτσης Γρηγόρης - Σαββατόβραδο στην Καισαριανή 1965]
TTITLE2=Μαβίλη Αλέκα - Αυτό τ 'αγόρι με τα μάτια τα μελιά [1966]
TTITLE3=Δάκης - Τόσα καλοκαίρια [1968]
TTITLE4=Μοσχολιού Βίκυ - Βάλε κι άλλο πιάτο στο τραπέζι [1965]
TTITLE5=Καλατζής Γιάννης - Δελφίνι, δελφινάκι [1968]
TTITLE6=Καλατζής Γιάννης - Το παλιό ρολόϊ [1968]
TTITLE7=Κόκοτας Σταμάτης - Πες πως μ' αντάμωσες [1969]
TTITLE8=Μοσχολιού Βίκυ - Τι σού 'φταιξαν τα νιάτα μου [1969]
TTITLE9=Καλατζής Γιάννης - Πίσω απ' την πόρτα [1968]
TTITLE10=Μπιθικώτσης Γρηγόρης - Ο μπαγλαμάς [1969]
TTITLE11=Μπιθικώτσης Γρηγόρης - Μιά Κυριακή [1969]
EXTD=
EXTT0=
EXTT1=
EXTT2=
EXTT3=
EXTT4=
EXTT5=
EXTT6=
EXTT7=
EXTT8=
EXTT9=
EXTT10=
EXTT11=
PLAYORDER=
